<mxfile host="Electron" modified="2023-10-13T15:01:03.668Z" agent="Mozilla/5.0 (Windows NT 10.0; Win64; x64) AppleWebKit/537.36 (KHTML, like Gecko) draw.io/22.0.2 Chrome/114.0.5735.289 Electron/25.8.4 Safari/537.36" etag="ue-ZcOBo1Kz02rqk4N8b" version="22.0.2" type="device">
  <diagram name="PÃ¡gina-1" id="JG9TCDqDcizyhYO3lst0">
    <mxGraphModel dx="1728" dy="1032" grid="1" gridSize="10" guides="1" tooltips="1" connect="1" arrows="1" fold="1" page="1" pageScale="1" pageWidth="827" pageHeight="1169" math="0" shadow="0">
      <root>
        <mxCell id="0" />
        <mxCell id="1" parent="0" />
        <mxCell id="IEvKCRZcaMSeG9NA4Mzw-15" style="edgeStyle=none;rounded=0;orthogonalLoop=1;jettySize=auto;html=1;exitX=1;exitY=0.5;exitDx=0;exitDy=0;entryX=0;entryY=0.5;entryDx=0;entryDy=0;endArrow=none;endFill=0;strokeWidth=5;fillColor=#dae8fc;strokeColor=#006aff;gradientColor=#7ea6e0;" parent="1" source="IEvKCRZcaMSeG9NA4Mzw-1" target="IEvKCRZcaMSeG9NA4Mzw-5" edge="1">
          <mxGeometry relative="1" as="geometry" />
        </mxCell>
        <mxCell id="IEvKCRZcaMSeG9NA4Mzw-17" style="edgeStyle=none;rounded=0;orthogonalLoop=1;jettySize=auto;html=1;exitX=1;exitY=0.5;exitDx=0;exitDy=0;entryX=0;entryY=0.5;entryDx=0;entryDy=0;endArrow=none;endFill=0;strokeWidth=5;fillColor=#dae8fc;strokeColor=#006aff;gradientColor=#7ea6e0;" parent="1" source="IEvKCRZcaMSeG9NA4Mzw-1" target="IEvKCRZcaMSeG9NA4Mzw-6" edge="1">
          <mxGeometry relative="1" as="geometry" />
        </mxCell>
        <mxCell id="IEvKCRZcaMSeG9NA4Mzw-18" style="edgeStyle=none;rounded=0;orthogonalLoop=1;jettySize=auto;html=1;exitX=1;exitY=0.5;exitDx=0;exitDy=0;entryX=0;entryY=0.5;entryDx=0;entryDy=0;endArrow=none;endFill=0;strokeWidth=5;fillColor=#dae8fc;strokeColor=#006aff;gradientColor=#7ea6e0;" parent="1" source="IEvKCRZcaMSeG9NA4Mzw-1" target="IEvKCRZcaMSeG9NA4Mzw-7" edge="1">
          <mxGeometry relative="1" as="geometry" />
        </mxCell>
        <mxCell id="IEvKCRZcaMSeG9NA4Mzw-1" value="" style="ellipse;whiteSpace=wrap;html=1;aspect=fixed;strokeWidth=5;fillColor=#dae8fc;strokeColor=#6c8ebf;gradientColor=#7ea6e0;" parent="1" vertex="1">
          <mxGeometry x="80" y="160" width="80" height="80" as="geometry" />
        </mxCell>
        <mxCell id="IEvKCRZcaMSeG9NA4Mzw-20" style="edgeStyle=none;rounded=0;orthogonalLoop=1;jettySize=auto;html=1;exitX=1;exitY=0.5;exitDx=0;exitDy=0;entryX=0;entryY=0.5;entryDx=0;entryDy=0;endArrow=none;endFill=0;strokeWidth=5;fillColor=#dae8fc;strokeColor=#006aff;gradientColor=#7ea6e0;" parent="1" source="IEvKCRZcaMSeG9NA4Mzw-2" target="IEvKCRZcaMSeG9NA4Mzw-5" edge="1">
          <mxGeometry relative="1" as="geometry" />
        </mxCell>
        <mxCell id="IEvKCRZcaMSeG9NA4Mzw-23" style="edgeStyle=none;rounded=0;orthogonalLoop=1;jettySize=auto;html=1;exitX=1;exitY=0.5;exitDx=0;exitDy=0;entryX=0;entryY=0.5;entryDx=0;entryDy=0;endArrow=none;endFill=0;strokeWidth=5;fillColor=#dae8fc;strokeColor=#006aff;gradientColor=#7ea6e0;" parent="1" source="IEvKCRZcaMSeG9NA4Mzw-2" target="IEvKCRZcaMSeG9NA4Mzw-6" edge="1">
          <mxGeometry relative="1" as="geometry" />
        </mxCell>
        <mxCell id="IEvKCRZcaMSeG9NA4Mzw-24" style="edgeStyle=none;rounded=0;orthogonalLoop=1;jettySize=auto;html=1;exitX=1;exitY=0.5;exitDx=0;exitDy=0;entryX=0;entryY=0.5;entryDx=0;entryDy=0;endArrow=none;endFill=0;strokeWidth=5;fillColor=#dae8fc;strokeColor=#006aff;gradientColor=#7ea6e0;" parent="1" source="IEvKCRZcaMSeG9NA4Mzw-2" target="IEvKCRZcaMSeG9NA4Mzw-7" edge="1">
          <mxGeometry relative="1" as="geometry" />
        </mxCell>
        <mxCell id="IEvKCRZcaMSeG9NA4Mzw-2" value="" style="ellipse;whiteSpace=wrap;html=1;aspect=fixed;strokeWidth=5;fillColor=#dae8fc;strokeColor=#6c8ebf;gradientColor=#7ea6e0;" parent="1" vertex="1">
          <mxGeometry x="80" y="320" width="80" height="80" as="geometry" />
        </mxCell>
        <mxCell id="IEvKCRZcaMSeG9NA4Mzw-21" style="edgeStyle=none;rounded=0;orthogonalLoop=1;jettySize=auto;html=1;exitX=1;exitY=0.5;exitDx=0;exitDy=0;endArrow=none;endFill=0;strokeWidth=5;fillColor=#dae8fc;strokeColor=#006aff;gradientColor=#7ea6e0;" parent="1" source="IEvKCRZcaMSeG9NA4Mzw-3" edge="1">
          <mxGeometry relative="1" as="geometry">
            <mxPoint x="320" y="280" as="targetPoint" />
          </mxGeometry>
        </mxCell>
        <mxCell id="IEvKCRZcaMSeG9NA4Mzw-25" style="edgeStyle=none;rounded=0;orthogonalLoop=1;jettySize=auto;html=1;exitX=1;exitY=0.5;exitDx=0;exitDy=0;entryX=0;entryY=0.5;entryDx=0;entryDy=0;endArrow=none;endFill=0;strokeWidth=5;fillColor=#dae8fc;strokeColor=#006aff;gradientColor=#7ea6e0;" parent="1" source="IEvKCRZcaMSeG9NA4Mzw-3" target="IEvKCRZcaMSeG9NA4Mzw-6" edge="1">
          <mxGeometry relative="1" as="geometry" />
        </mxCell>
        <mxCell id="IEvKCRZcaMSeG9NA4Mzw-26" style="edgeStyle=none;rounded=0;orthogonalLoop=1;jettySize=auto;html=1;exitX=1;exitY=0.5;exitDx=0;exitDy=0;entryX=0;entryY=0.5;entryDx=0;entryDy=0;endArrow=none;endFill=0;strokeWidth=5;fillColor=#dae8fc;strokeColor=#006aff;gradientColor=#7ea6e0;" parent="1" source="IEvKCRZcaMSeG9NA4Mzw-3" target="IEvKCRZcaMSeG9NA4Mzw-7" edge="1">
          <mxGeometry relative="1" as="geometry" />
        </mxCell>
        <mxCell id="IEvKCRZcaMSeG9NA4Mzw-3" value="" style="ellipse;whiteSpace=wrap;html=1;aspect=fixed;strokeWidth=5;fillColor=#dae8fc;strokeColor=#6c8ebf;gradientColor=#7ea6e0;" parent="1" vertex="1">
          <mxGeometry x="80" y="480" width="80" height="80" as="geometry" />
        </mxCell>
        <mxCell id="IEvKCRZcaMSeG9NA4Mzw-22" style="edgeStyle=none;rounded=0;orthogonalLoop=1;jettySize=auto;html=1;exitX=1;exitY=0.5;exitDx=0;exitDy=0;endArrow=none;endFill=0;strokeWidth=5;fillColor=#dae8fc;strokeColor=#006aff;gradientColor=#7ea6e0;" parent="1" source="IEvKCRZcaMSeG9NA4Mzw-4" edge="1">
          <mxGeometry relative="1" as="geometry">
            <mxPoint x="320" y="270" as="targetPoint" />
          </mxGeometry>
        </mxCell>
        <mxCell id="IEvKCRZcaMSeG9NA4Mzw-27" style="edgeStyle=none;rounded=0;orthogonalLoop=1;jettySize=auto;html=1;exitX=1;exitY=0.5;exitDx=0;exitDy=0;entryX=0;entryY=0.5;entryDx=0;entryDy=0;endArrow=none;endFill=0;strokeWidth=5;fillColor=#dae8fc;strokeColor=#006aff;gradientColor=#7ea6e0;" parent="1" source="IEvKCRZcaMSeG9NA4Mzw-4" target="IEvKCRZcaMSeG9NA4Mzw-6" edge="1">
          <mxGeometry relative="1" as="geometry" />
        </mxCell>
        <mxCell id="IEvKCRZcaMSeG9NA4Mzw-28" style="edgeStyle=none;rounded=0;orthogonalLoop=1;jettySize=auto;html=1;exitX=1;exitY=0.5;exitDx=0;exitDy=0;entryX=0;entryY=0.5;entryDx=0;entryDy=0;endArrow=none;endFill=0;strokeWidth=5;fillColor=#dae8fc;strokeColor=#006aff;gradientColor=#7ea6e0;" parent="1" source="IEvKCRZcaMSeG9NA4Mzw-4" target="IEvKCRZcaMSeG9NA4Mzw-7" edge="1">
          <mxGeometry relative="1" as="geometry" />
        </mxCell>
        <mxCell id="IEvKCRZcaMSeG9NA4Mzw-4" value="" style="ellipse;whiteSpace=wrap;html=1;aspect=fixed;strokeWidth=5;fillColor=#dae8fc;strokeColor=#6c8ebf;gradientColor=#7ea6e0;" parent="1" vertex="1">
          <mxGeometry x="80" y="640" width="80" height="80" as="geometry" />
        </mxCell>
        <mxCell id="IEvKCRZcaMSeG9NA4Mzw-48" style="edgeStyle=none;rounded=0;orthogonalLoop=1;jettySize=auto;html=1;exitX=1;exitY=0.5;exitDx=0;exitDy=0;entryX=0;entryY=0.5;entryDx=0;entryDy=0;endArrow=none;endFill=0;strokeWidth=5;fillColor=#dae8fc;strokeColor=#006aff;gradientColor=#7ea6e0;" parent="1" source="IEvKCRZcaMSeG9NA4Mzw-5" target="IEvKCRZcaMSeG9NA4Mzw-32" edge="1">
          <mxGeometry relative="1" as="geometry" />
        </mxCell>
        <mxCell id="IEvKCRZcaMSeG9NA4Mzw-49" style="edgeStyle=none;rounded=0;orthogonalLoop=1;jettySize=auto;html=1;exitX=1;exitY=0.5;exitDx=0;exitDy=0;entryX=0;entryY=0.5;entryDx=0;entryDy=0;endArrow=none;endFill=0;strokeWidth=5;fillColor=#dae8fc;strokeColor=#006aff;gradientColor=#7ea6e0;" parent="1" source="IEvKCRZcaMSeG9NA4Mzw-5" target="IEvKCRZcaMSeG9NA4Mzw-36" edge="1">
          <mxGeometry relative="1" as="geometry" />
        </mxCell>
        <mxCell id="IEvKCRZcaMSeG9NA4Mzw-5" value="" style="ellipse;whiteSpace=wrap;html=1;aspect=fixed;strokeWidth=5;fillColor=#dae8fc;strokeColor=#6c8ebf;gradientColor=#7ea6e0;" parent="1" vertex="1">
          <mxGeometry x="320" y="240" width="80" height="80" as="geometry" />
        </mxCell>
        <mxCell id="IEvKCRZcaMSeG9NA4Mzw-52" style="edgeStyle=none;rounded=0;orthogonalLoop=1;jettySize=auto;html=1;exitX=1;exitY=0.5;exitDx=0;exitDy=0;entryX=0;entryY=0.5;entryDx=0;entryDy=0;endArrow=none;endFill=0;strokeWidth=5;fillColor=#dae8fc;strokeColor=#006aff;gradientColor=#7ea6e0;" parent="1" source="IEvKCRZcaMSeG9NA4Mzw-6" target="IEvKCRZcaMSeG9NA4Mzw-32" edge="1">
          <mxGeometry relative="1" as="geometry" />
        </mxCell>
        <mxCell id="IEvKCRZcaMSeG9NA4Mzw-54" style="edgeStyle=none;rounded=0;orthogonalLoop=1;jettySize=auto;html=1;exitX=1;exitY=0.5;exitDx=0;exitDy=0;entryX=0;entryY=0.5;entryDx=0;entryDy=0;endArrow=none;endFill=0;strokeWidth=5;fillColor=#dae8fc;strokeColor=#006aff;gradientColor=#7ea6e0;" parent="1" source="IEvKCRZcaMSeG9NA4Mzw-6" target="IEvKCRZcaMSeG9NA4Mzw-40" edge="1">
          <mxGeometry relative="1" as="geometry" />
        </mxCell>
        <mxCell id="IEvKCRZcaMSeG9NA4Mzw-55" style="edgeStyle=none;rounded=0;orthogonalLoop=1;jettySize=auto;html=1;exitX=1;exitY=0.5;exitDx=0;exitDy=0;entryX=0;entryY=0.5;entryDx=0;entryDy=0;endArrow=none;endFill=0;strokeWidth=5;fillColor=#dae8fc;strokeColor=#006aff;gradientColor=#7ea6e0;" parent="1" source="IEvKCRZcaMSeG9NA4Mzw-6" target="IEvKCRZcaMSeG9NA4Mzw-44" edge="1">
          <mxGeometry relative="1" as="geometry" />
        </mxCell>
        <mxCell id="IEvKCRZcaMSeG9NA4Mzw-6" value="" style="ellipse;whiteSpace=wrap;html=1;aspect=fixed;strokeWidth=5;fillColor=#dae8fc;strokeColor=#6c8ebf;gradientColor=#7ea6e0;" parent="1" vertex="1">
          <mxGeometry x="320" y="400" width="80" height="80" as="geometry" />
        </mxCell>
        <mxCell id="IEvKCRZcaMSeG9NA4Mzw-56" style="edgeStyle=none;rounded=0;orthogonalLoop=1;jettySize=auto;html=1;exitX=1;exitY=0.5;exitDx=0;exitDy=0;entryX=0;entryY=0.5;entryDx=0;entryDy=0;endArrow=none;endFill=0;strokeWidth=5;fillColor=#dae8fc;strokeColor=#006aff;gradientColor=#7ea6e0;" parent="1" source="IEvKCRZcaMSeG9NA4Mzw-7" target="IEvKCRZcaMSeG9NA4Mzw-32" edge="1">
          <mxGeometry relative="1" as="geometry" />
        </mxCell>
        <mxCell id="IEvKCRZcaMSeG9NA4Mzw-57" style="edgeStyle=none;rounded=0;orthogonalLoop=1;jettySize=auto;html=1;exitX=1;exitY=0.5;exitDx=0;exitDy=0;entryX=0;entryY=0.5;entryDx=0;entryDy=0;endArrow=none;endFill=0;strokeWidth=5;fillColor=#dae8fc;strokeColor=#006aff;gradientColor=#7ea6e0;" parent="1" source="IEvKCRZcaMSeG9NA4Mzw-7" target="IEvKCRZcaMSeG9NA4Mzw-36" edge="1">
          <mxGeometry relative="1" as="geometry" />
        </mxCell>
        <mxCell id="IEvKCRZcaMSeG9NA4Mzw-58" style="edgeStyle=none;rounded=0;orthogonalLoop=1;jettySize=auto;html=1;exitX=1;exitY=0.5;exitDx=0;exitDy=0;entryX=0;entryY=0.5;entryDx=0;entryDy=0;endArrow=none;endFill=0;strokeWidth=5;fillColor=#dae8fc;strokeColor=#006aff;gradientColor=#7ea6e0;" parent="1" source="IEvKCRZcaMSeG9NA4Mzw-7" target="IEvKCRZcaMSeG9NA4Mzw-40" edge="1">
          <mxGeometry relative="1" as="geometry" />
        </mxCell>
        <mxCell id="IEvKCRZcaMSeG9NA4Mzw-59" style="edgeStyle=none;rounded=0;orthogonalLoop=1;jettySize=auto;html=1;exitX=1;exitY=0.5;exitDx=0;exitDy=0;entryX=0;entryY=0.5;entryDx=0;entryDy=0;endArrow=none;endFill=0;strokeWidth=5;fillColor=#dae8fc;strokeColor=#006aff;gradientColor=#7ea6e0;" parent="1" source="IEvKCRZcaMSeG9NA4Mzw-7" target="IEvKCRZcaMSeG9NA4Mzw-44" edge="1">
          <mxGeometry relative="1" as="geometry" />
        </mxCell>
        <mxCell id="IEvKCRZcaMSeG9NA4Mzw-7" value="" style="ellipse;whiteSpace=wrap;html=1;aspect=fixed;strokeWidth=5;fillColor=#dae8fc;strokeColor=#6c8ebf;gradientColor=#7ea6e0;" parent="1" vertex="1">
          <mxGeometry x="320" y="560" width="80" height="80" as="geometry" />
        </mxCell>
        <mxCell id="IEvKCRZcaMSeG9NA4Mzw-29" style="edgeStyle=none;rounded=0;orthogonalLoop=1;jettySize=auto;html=1;exitX=1;exitY=0.5;exitDx=0;exitDy=0;entryX=0;entryY=0.5;entryDx=0;entryDy=0;endArrow=none;endFill=0;strokeWidth=5;fillColor=#dae8fc;strokeColor=#006aff;gradientColor=#7ea6e0;" parent="1" source="IEvKCRZcaMSeG9NA4Mzw-32" target="IEvKCRZcaMSeG9NA4Mzw-45" edge="1">
          <mxGeometry relative="1" as="geometry" />
        </mxCell>
        <mxCell id="IEvKCRZcaMSeG9NA4Mzw-30" style="edgeStyle=none;rounded=0;orthogonalLoop=1;jettySize=auto;html=1;exitX=1;exitY=0.5;exitDx=0;exitDy=0;entryX=0;entryY=0.5;entryDx=0;entryDy=0;endArrow=none;endFill=0;strokeWidth=5;fillColor=#dae8fc;strokeColor=#006aff;gradientColor=#7ea6e0;" parent="1" source="IEvKCRZcaMSeG9NA4Mzw-32" target="IEvKCRZcaMSeG9NA4Mzw-46" edge="1">
          <mxGeometry relative="1" as="geometry" />
        </mxCell>
        <mxCell id="IEvKCRZcaMSeG9NA4Mzw-31" style="edgeStyle=none;rounded=0;orthogonalLoop=1;jettySize=auto;html=1;exitX=1;exitY=0.5;exitDx=0;exitDy=0;entryX=0;entryY=0.5;entryDx=0;entryDy=0;endArrow=none;endFill=0;strokeWidth=5;fillColor=#dae8fc;strokeColor=#006aff;gradientColor=#7ea6e0;" parent="1" source="IEvKCRZcaMSeG9NA4Mzw-32" target="IEvKCRZcaMSeG9NA4Mzw-47" edge="1">
          <mxGeometry relative="1" as="geometry" />
        </mxCell>
        <mxCell id="IEvKCRZcaMSeG9NA4Mzw-32" value="" style="ellipse;whiteSpace=wrap;html=1;aspect=fixed;strokeWidth=5;fillColor=#dae8fc;strokeColor=#6c8ebf;gradientColor=#7ea6e0;" parent="1" vertex="1">
          <mxGeometry x="560" y="160" width="80" height="80" as="geometry" />
        </mxCell>
        <mxCell id="IEvKCRZcaMSeG9NA4Mzw-33" style="edgeStyle=none;rounded=0;orthogonalLoop=1;jettySize=auto;html=1;exitX=1;exitY=0.5;exitDx=0;exitDy=0;entryX=0;entryY=0.5;entryDx=0;entryDy=0;endArrow=none;endFill=0;strokeWidth=5;fillColor=#dae8fc;strokeColor=#006aff;gradientColor=#7ea6e0;" parent="1" source="IEvKCRZcaMSeG9NA4Mzw-36" target="IEvKCRZcaMSeG9NA4Mzw-45" edge="1">
          <mxGeometry relative="1" as="geometry" />
        </mxCell>
        <mxCell id="IEvKCRZcaMSeG9NA4Mzw-34" style="edgeStyle=none;rounded=0;orthogonalLoop=1;jettySize=auto;html=1;exitX=1;exitY=0.5;exitDx=0;exitDy=0;entryX=0;entryY=0.5;entryDx=0;entryDy=0;endArrow=none;endFill=0;strokeWidth=5;fillColor=#dae8fc;strokeColor=#006aff;gradientColor=#7ea6e0;" parent="1" source="IEvKCRZcaMSeG9NA4Mzw-36" target="IEvKCRZcaMSeG9NA4Mzw-46" edge="1">
          <mxGeometry relative="1" as="geometry" />
        </mxCell>
        <mxCell id="IEvKCRZcaMSeG9NA4Mzw-35" style="edgeStyle=none;rounded=0;orthogonalLoop=1;jettySize=auto;html=1;exitX=1;exitY=0.5;exitDx=0;exitDy=0;entryX=0;entryY=0.5;entryDx=0;entryDy=0;endArrow=none;endFill=0;strokeWidth=5;fillColor=#dae8fc;strokeColor=#006aff;gradientColor=#7ea6e0;" parent="1" source="IEvKCRZcaMSeG9NA4Mzw-36" target="IEvKCRZcaMSeG9NA4Mzw-47" edge="1">
          <mxGeometry relative="1" as="geometry" />
        </mxCell>
        <mxCell id="IEvKCRZcaMSeG9NA4Mzw-53" style="edgeStyle=none;rounded=0;orthogonalLoop=1;jettySize=auto;html=1;exitX=0;exitY=0.5;exitDx=0;exitDy=0;entryX=1;entryY=0.5;entryDx=0;entryDy=0;endArrow=none;endFill=0;strokeWidth=5;fillColor=#dae8fc;strokeColor=#006aff;gradientColor=#7ea6e0;" parent="1" source="IEvKCRZcaMSeG9NA4Mzw-36" target="IEvKCRZcaMSeG9NA4Mzw-6" edge="1">
          <mxGeometry relative="1" as="geometry" />
        </mxCell>
        <mxCell id="IEvKCRZcaMSeG9NA4Mzw-36" value="" style="ellipse;whiteSpace=wrap;html=1;aspect=fixed;strokeWidth=5;fillColor=#dae8fc;strokeColor=#6c8ebf;gradientColor=#7ea6e0;" parent="1" vertex="1">
          <mxGeometry x="560" y="320" width="80" height="80" as="geometry" />
        </mxCell>
        <mxCell id="IEvKCRZcaMSeG9NA4Mzw-37" style="edgeStyle=none;rounded=0;orthogonalLoop=1;jettySize=auto;html=1;exitX=1;exitY=0.5;exitDx=0;exitDy=0;endArrow=none;endFill=0;strokeWidth=5;fillColor=#dae8fc;strokeColor=#006aff;gradientColor=#7ea6e0;" parent="1" source="IEvKCRZcaMSeG9NA4Mzw-40" edge="1">
          <mxGeometry relative="1" as="geometry">
            <mxPoint x="800" y="280" as="targetPoint" />
          </mxGeometry>
        </mxCell>
        <mxCell id="IEvKCRZcaMSeG9NA4Mzw-38" style="edgeStyle=none;rounded=0;orthogonalLoop=1;jettySize=auto;html=1;exitX=1;exitY=0.5;exitDx=0;exitDy=0;entryX=0;entryY=0.5;entryDx=0;entryDy=0;endArrow=none;endFill=0;strokeWidth=5;fillColor=#dae8fc;strokeColor=#006aff;gradientColor=#7ea6e0;" parent="1" source="IEvKCRZcaMSeG9NA4Mzw-40" target="IEvKCRZcaMSeG9NA4Mzw-46" edge="1">
          <mxGeometry relative="1" as="geometry" />
        </mxCell>
        <mxCell id="IEvKCRZcaMSeG9NA4Mzw-39" style="edgeStyle=none;rounded=0;orthogonalLoop=1;jettySize=auto;html=1;exitX=1;exitY=0.5;exitDx=0;exitDy=0;entryX=0;entryY=0.5;entryDx=0;entryDy=0;endArrow=none;endFill=0;strokeWidth=5;fillColor=#dae8fc;strokeColor=#006aff;gradientColor=#7ea6e0;" parent="1" source="IEvKCRZcaMSeG9NA4Mzw-40" target="IEvKCRZcaMSeG9NA4Mzw-47" edge="1">
          <mxGeometry relative="1" as="geometry" />
        </mxCell>
        <mxCell id="IEvKCRZcaMSeG9NA4Mzw-50" style="edgeStyle=none;rounded=0;orthogonalLoop=1;jettySize=auto;html=1;exitX=0;exitY=0.5;exitDx=0;exitDy=0;entryX=1;entryY=0.5;entryDx=0;entryDy=0;endArrow=none;endFill=0;strokeWidth=5;fillColor=#dae8fc;strokeColor=#006aff;gradientColor=#7ea6e0;" parent="1" source="IEvKCRZcaMSeG9NA4Mzw-40" target="IEvKCRZcaMSeG9NA4Mzw-5" edge="1">
          <mxGeometry relative="1" as="geometry">
            <mxPoint x="550" y="270" as="targetPoint" />
          </mxGeometry>
        </mxCell>
        <mxCell id="IEvKCRZcaMSeG9NA4Mzw-40" value="" style="ellipse;whiteSpace=wrap;html=1;aspect=fixed;strokeWidth=5;fillColor=#dae8fc;strokeColor=#6c8ebf;gradientColor=#7ea6e0;" parent="1" vertex="1">
          <mxGeometry x="560" y="480" width="80" height="80" as="geometry" />
        </mxCell>
        <mxCell id="IEvKCRZcaMSeG9NA4Mzw-41" style="edgeStyle=none;rounded=0;orthogonalLoop=1;jettySize=auto;html=1;exitX=1;exitY=0.5;exitDx=0;exitDy=0;endArrow=none;endFill=0;strokeWidth=5;fillColor=#dae8fc;strokeColor=#006aff;gradientColor=#7ea6e0;" parent="1" source="IEvKCRZcaMSeG9NA4Mzw-44" edge="1">
          <mxGeometry relative="1" as="geometry">
            <mxPoint x="800" y="270" as="targetPoint" />
          </mxGeometry>
        </mxCell>
        <mxCell id="IEvKCRZcaMSeG9NA4Mzw-42" style="edgeStyle=none;rounded=0;orthogonalLoop=1;jettySize=auto;html=1;exitX=1;exitY=0.5;exitDx=0;exitDy=0;entryX=0;entryY=0.5;entryDx=0;entryDy=0;endArrow=none;endFill=0;strokeWidth=5;fillColor=#dae8fc;strokeColor=#006aff;gradientColor=#7ea6e0;" parent="1" source="IEvKCRZcaMSeG9NA4Mzw-44" target="IEvKCRZcaMSeG9NA4Mzw-46" edge="1">
          <mxGeometry relative="1" as="geometry" />
        </mxCell>
        <mxCell id="IEvKCRZcaMSeG9NA4Mzw-43" style="edgeStyle=none;rounded=0;orthogonalLoop=1;jettySize=auto;html=1;exitX=1;exitY=0.5;exitDx=0;exitDy=0;entryX=0;entryY=0.5;entryDx=0;entryDy=0;endArrow=none;endFill=0;strokeWidth=5;fillColor=#dae8fc;strokeColor=#006aff;gradientColor=#7ea6e0;" parent="1" source="IEvKCRZcaMSeG9NA4Mzw-44" target="IEvKCRZcaMSeG9NA4Mzw-47" edge="1">
          <mxGeometry relative="1" as="geometry" />
        </mxCell>
        <mxCell id="IEvKCRZcaMSeG9NA4Mzw-51" style="edgeStyle=none;rounded=0;orthogonalLoop=1;jettySize=auto;html=1;exitX=0;exitY=0.5;exitDx=0;exitDy=0;entryX=1;entryY=0.5;entryDx=0;entryDy=0;endArrow=none;endFill=0;strokeWidth=5;fillColor=#dae8fc;strokeColor=#006aff;gradientColor=#7ea6e0;" parent="1" source="IEvKCRZcaMSeG9NA4Mzw-44" target="IEvKCRZcaMSeG9NA4Mzw-5" edge="1">
          <mxGeometry relative="1" as="geometry">
            <mxPoint x="500" y="270" as="targetPoint" />
          </mxGeometry>
        </mxCell>
        <mxCell id="IEvKCRZcaMSeG9NA4Mzw-44" value="" style="ellipse;whiteSpace=wrap;html=1;aspect=fixed;strokeWidth=5;fillColor=#dae8fc;strokeColor=#6c8ebf;gradientColor=#7ea6e0;" parent="1" vertex="1">
          <mxGeometry x="560" y="640" width="80" height="80" as="geometry" />
        </mxCell>
        <mxCell id="IEvKCRZcaMSeG9NA4Mzw-45" value="" style="ellipse;whiteSpace=wrap;html=1;aspect=fixed;strokeWidth=5;fillColor=#dae8fc;strokeColor=#6c8ebf;gradientColor=#7ea6e0;" parent="1" vertex="1">
          <mxGeometry x="800" y="240" width="80" height="80" as="geometry" />
        </mxCell>
        <mxCell id="IEvKCRZcaMSeG9NA4Mzw-46" value="" style="ellipse;whiteSpace=wrap;html=1;aspect=fixed;strokeWidth=5;fillColor=#dae8fc;strokeColor=#6c8ebf;gradientColor=#7ea6e0;" parent="1" vertex="1">
          <mxGeometry x="800" y="400" width="80" height="80" as="geometry" />
        </mxCell>
        <mxCell id="IEvKCRZcaMSeG9NA4Mzw-47" value="" style="ellipse;whiteSpace=wrap;html=1;aspect=fixed;strokeWidth=5;fillColor=#dae8fc;strokeColor=#6c8ebf;gradientColor=#7ea6e0;" parent="1" vertex="1">
          <mxGeometry x="800" y="560" width="80" height="80" as="geometry" />
        </mxCell>
        <mxCell id="IEvKCRZcaMSeG9NA4Mzw-60" value="&lt;div style=&quot;text-align: left; font-size: 20px;&quot;&gt;&lt;span style=&quot;background-color: initial; font-size: 20px;&quot;&gt;FORMULA:&lt;/span&gt;&lt;/div&gt;&lt;hr style=&quot;font-size: 20px;&quot;&gt;No. de unidades de la capa anterior&lt;br style=&quot;font-size: 20px;&quot;&gt;x&lt;br style=&quot;font-size: 20px;&quot;&gt;No. de unidades de la capa actual&lt;br style=&quot;font-size: 20px;&quot;&gt;+&lt;br style=&quot;font-size: 20px;&quot;&gt;Sesgo por cada unidad en la capa" style="text;html=1;strokeColor=#6F0000;fillColor=#a20025;align=center;verticalAlign=middle;whiteSpace=wrap;rounded=0;fontColor=#ffffff;fontSize=20;" parent="1" vertex="1">
          <mxGeometry x="40" y="760" width="210" height="260" as="geometry" />
        </mxCell>
        <mxCell id="IEvKCRZcaMSeG9NA4Mzw-61" value="4 * 3 + 3&lt;br style=&quot;font-size: 20px;&quot;&gt;12 + 3&lt;br style=&quot;font-size: 20px;&quot;&gt;15&lt;br style=&quot;font-size: 20px;&quot;&gt;&lt;hr style=&quot;font-size: 20px;&quot;&gt;15 parÃ¡metros" style="text;html=1;strokeColor=#6F0000;fillColor=#a20025;align=center;verticalAlign=middle;whiteSpace=wrap;rounded=0;fontColor=#ffffff;fontSize=20;imageWidth=24;imageHeight=24;" parent="1" vertex="1">
          <mxGeometry x="288.5" y="760" width="143" height="160" as="geometry" />
        </mxCell>
        <mxCell id="IEvKCRZcaMSeG9NA4Mzw-62" value="4 * 3 + 3&lt;br style=&quot;font-size: 20px;&quot;&gt;12 + 3&lt;br style=&quot;font-size: 20px;&quot;&gt;15&lt;br style=&quot;font-size: 20px;&quot;&gt;&lt;hr style=&quot;font-size: 20px;&quot;&gt;15 parÃ¡metros" style="text;html=1;strokeColor=#6F0000;fillColor=#a20025;align=center;verticalAlign=middle;whiteSpace=wrap;rounded=0;fontColor=#ffffff;fontSize=20;" parent="1" vertex="1">
          <mxGeometry x="770" y="760" width="140" height="160" as="geometry" />
        </mxCell>
        <mxCell id="IEvKCRZcaMSeG9NA4Mzw-63" value="3 * 4 + 4&lt;br style=&quot;font-size: 20px;&quot;&gt;12 + 4&lt;br style=&quot;font-size: 20px;&quot;&gt;16&lt;br style=&quot;font-size: 20px;&quot;&gt;&lt;hr style=&quot;font-size: 20px;&quot;&gt;16 parÃ¡metros" style="text;html=1;strokeColor=#6F0000;fillColor=#a20025;align=center;verticalAlign=middle;whiteSpace=wrap;rounded=0;fontColor=#ffffff;fontSize=20;" parent="1" vertex="1">
          <mxGeometry x="530" y="760" width="140" height="160" as="geometry" />
        </mxCell>
        <mxCell id="IEvKCRZcaMSeG9NA4Mzw-64" value="Datos de entrada" style="text;html=1;strokeColor=#6F0000;fillColor=#a20025;align=center;verticalAlign=middle;whiteSpace=wrap;rounded=0;fontColor=#ffffff;fontSize=20;" parent="1" vertex="1">
          <mxGeometry x="65" y="100" width="110" height="50" as="geometry" />
        </mxCell>
        <mxCell id="IEvKCRZcaMSeG9NA4Mzw-65" value="Capa 1" style="text;html=1;strokeColor=#6F0000;fillColor=#a20025;align=center;verticalAlign=middle;whiteSpace=wrap;rounded=0;fontColor=#ffffff;fontSize=20;" parent="1" vertex="1">
          <mxGeometry x="305" y="100" width="110" height="50" as="geometry" />
        </mxCell>
        <mxCell id="IEvKCRZcaMSeG9NA4Mzw-66" value="Capa 2 (oculta)" style="text;html=1;strokeColor=#6F0000;fillColor=#a20025;align=center;verticalAlign=middle;whiteSpace=wrap;rounded=0;fontColor=#ffffff;fontSize=20;" parent="1" vertex="1">
          <mxGeometry x="545" y="100" width="110" height="50" as="geometry" />
        </mxCell>
        <mxCell id="IEvKCRZcaMSeG9NA4Mzw-67" value="Capa 3 (salida)" style="text;html=1;strokeColor=#6F0000;fillColor=#a20025;align=center;verticalAlign=middle;whiteSpace=wrap;rounded=0;fontColor=#ffffff;fontSize=20;" parent="1" vertex="1">
          <mxGeometry x="785" y="100" width="110" height="50" as="geometry" />
        </mxCell>
      </root>
    </mxGraphModel>
  </diagram>
</mxfile>
